<svg width="150" height="150" viewBox="0 0 150 150" fill="none" xmlns="http://www.w3.org/2000/svg" style="width: 200px; height: 200px;"><style>
     .working16-1 {animation:working16-1 4s infinite;}
     @keyframes working16-1 {
         0%{transform: translate3d(0, -8px, 0);}
         50%{transform: translate3d(0, 8px, 0);}
         100%{transform: translate3d(0, -8px, 0);}
     }

     .working16-2 {animation:working16-2 4s 400ms infinite;}
     .working16-3 {animation:working16-2 4s 600ms infinite;}
     .working16-4 {animation:working16-2 4s 800ms infinite;}
     @keyframes working16-2 {
         0%{transform: translate3d(0, 0, 0);}
         50%{transform: translate3d(0, 10px, 0);}
         100%{transform: translate3d(0, 0, 0);}
     }
     
     @media (prefers-reduced-motion: reduce) {
         .working16-1, .working16-2, .working16-3, .working16-4 {
             animation: none;
         }
     }
    </style><g class="working16-4" style="animation-duration: 4s;"><path class="fillCls5" d="M57.9534 33.3063C57.9534 33.3063 58.7783 32.6362 59.8891 30.5175C60.9998 28.3988 62.8316 23.8031 62.2463 23.1557C61.6622 22.5082 59.4821 26.8337 58.9775 26.8044C58.4728 26.7749 58.683 17.3323 57.8031 17.3191C56.9221 17.3058 56.151 23.0846 56.2207 22.8873C56.2891 22.6902 55.7465 16.4508 55.1563 16.2442C54.5649 16.0366 54.18 16.7134 54.18 16.7134C54.18 16.7134 53.5213 16.339 53.1437 17.0689C52.9494 17.4453 53.0765 24.0723 53.0765 24.0723C53.0765 24.0723 51.3511 18.8937 50.9539 18.9752C50.5568 19.0567 50.7389 21.4816 51.3218 25.0801C51.9046 28.6784 52.7344 31.9934 52.7344 31.9934L47.6485 56.9711C47.453 57.9295 47.9711 58.8887 48.879 59.2509C52.6366 60.7486 61.9957 64.2785 63.9094 63.0993C64.4874 62.7437 62.9232 53.4058 63.4438 53.0797C64.8234 52.2161 56.3551 51.963 56.3575 51.8881C56.3624 51.6672 57.9534 33.3063 57.9534 33.3063Z" fill="#F28377" stroke-width="2px"></path><path class="fillCls5" d="M85.7516 107.484L104.127 118.461L98.5225 124.968L81.168 116.311L85.7516 107.484Z" fill="#F28377" stroke-width="2px"></path><path class="fillCls9" d="M98.4357 112.502L104.99 110.67L107.437 136.157C107.579 137.636 107.027 139.096 105.944 140.114C105.268 140.749 104.168 140.529 103.787 139.684L98.6214 128.242L96.7921 127.575C95.553 127.123 95.0532 125.582 95.8634 124.541C95.8927 124.503 95.9233 124.467 95.955 124.432C96.7188 123.59 97.7392 123.033 97.7392 123.033L96.8325 114.881C96.7115 113.801 97.3909 112.794 98.4357 112.502Z" fill="#8F8F8F" stroke-width="2px"></path><path class="fillCls10" d="M102.584 111.353C102.584 111.353 101.816 114.207 102.423 118.726C103.03 123.245 104.811 126.737 105.605 130.761C106.916 137.399 105.769 140.306 105.769 140.306L106.342 139.76C107.177 138.965 107.601 137.831 107.491 136.684L104.994 110.67L102.584 111.353Z" fill="#000000" stroke-width="2px"></path><path class="fillCls10" d="M98.4756 129.141C98.2178 128.867 98.1713 128.458 98.3216 128.113C98.6027 127.473 99.1306 126.366 99.5131 126.126C100.059 125.784 100.552 126.084 100.641 126.423C100.731 126.763 99.8858 127.568 99.463 128.623C99.1025 129.517 98.7335 129.414 98.4756 129.141Z" fill="#000000" stroke-width="2px"></path><path class="fillCls10" d="M99.7373 131.665C99.4795 131.393 99.4331 130.982 99.5834 130.639C99.8644 129.997 100.391 128.89 100.775 128.652C101.321 128.31 101.813 128.61 101.903 128.949C101.993 129.287 101.147 130.094 100.725 131.147C100.364 132.044 99.9952 131.94 99.7373 131.665Z" fill="#000000" stroke-width="2px"></path><path class="fillCls10" d="M100.84 134.202C100.583 133.93 100.537 133.519 100.687 133.176C100.968 132.534 101.495 131.427 101.878 131.189C102.425 130.847 102.916 131.147 103.006 131.486C103.097 131.824 102.251 132.631 101.827 133.684C101.468 134.58 101.099 134.476 100.84 134.202Z" fill="#000000" stroke-width="2px"></path><path class="fillCls4" d="M57.9043 86.6238C54.3251 84.269 49.4983 85.4996 47.4833 89.2804L47.3916 89.4527C45.2629 93.3752 46.7269 98.2802 50.6555 100.393L89.33 122.133L95.0122 111.039L57.9043 86.6238Z" fill="#841518" stroke-width="2px"></path><path class="fillCls11" d="M61.6927 52.0542L79.2086 50.3384L86.4317 51.3015L96.2027 52.6011C99.0035 52.9737 101.542 54.442 103.262 56.684L111.702 67.6816L101.036 74.3622L101.654 85.3282L94.2365 91.432L68.3929 87.1233L67.3028 67.1684L57.6113 65.2535L61.6927 52.0542Z" fill="rgba(37,25,142,1)" stroke-width="2px"></path><path class="fillCls5" d="M91.9521 91.9051L84.0104 92.2484C82.5404 92.582 81.6581 92.9853 81.0728 93.892C79.7225 95.9791 77.4521 99.3946 77.6158 100.052C77.7783 100.7 78.6948 100.381 78.6948 100.381C78.6948 100.381 78.459 100.751 79.059 101.104C79.5111 101.369 79.94 100.973 79.94 100.973C79.94 100.973 79.9535 101.456 80.3934 101.664C80.9078 101.907 81.2976 101.496 81.2976 101.496C81.2976 101.496 81.2011 102.178 82.2202 102.115C82.9986 102.066 85.6968 96.9188 85.6968 96.9188C85.6968 96.9188 87.3978 97.0178 89.309 97.1315C91.2214 97.2439 93.2975 96.7942 94.3117 96.4667C102.336 93.8737 109.535 87.4644 113.232 83.7361C114.821 82.1304 115.181 79.6779 114.114 77.6861L109.688 68.9917L101.289 74.1448L104.501 80.3451L91.9521 91.9051Z" fill="#F28377" stroke-width="2px"></path><path class="fillCls8" d="M94.0257 103.624H65.3679C64.2375 103.624 63.3223 102.708 63.3223 101.579V84.5871C63.3223 83.458 64.2375 82.5415 65.3679 82.5415H94.0257C95.1548 82.5415 96.0701 83.458 96.0701 84.5871V101.579C96.0701 102.708 95.1548 103.624 94.0257 103.624Z" fill="#BFBFBF" stroke-width="2px"></path><path class="fillCls7" d="M79.8909 95.375C81.1886 95.375 82.2408 94.3229 82.2408 93.0239C82.2408 91.7262 81.1886 90.6729 79.8909 90.6729C78.5931 90.6729 77.541 91.7262 77.541 93.0239C77.541 94.3229 78.5931 95.375 79.8909 95.375Z" fill="#EEEEEE" stroke-width="2px"></path><path class="fillCls5" d="M75.6125 106.01L56.0449 114.684L60.8216 121.823L79.0951 115.329L75.6125 106.01Z" fill="#F28377" stroke-width="2px"></path><path class="fillCls9" d="M62.4107 109.456L56.126 106.845L50.6161 131.848C50.2972 133.298 50.6662 134.816 51.6194 135.956C52.2133 136.667 53.3326 136.583 53.8128 135.79L60.3223 125.057L62.22 124.616C63.5044 124.318 64.1874 122.848 63.508 121.716C63.4836 121.676 63.4579 121.636 63.431 121.596C62.7748 120.67 61.829 119.992 61.829 119.992L63.7145 112.01C63.9663 110.955 63.4127 109.874 62.4107 109.456Z" fill="#8F8F8F" stroke-width="2px"></path><path class="fillCls10" d="M58.4352 107.816C58.4352 107.816 58.8531 110.741 57.7033 115.154C56.5546 119.567 54.3648 122.818 53.0891 126.715C50.986 133.146 51.773 136.17 51.773 136.17L51.2695 135.557C50.5363 134.668 50.2541 133.491 50.5021 132.367L56.1257 106.846L58.4352 107.816Z" fill="#000000" stroke-width="2px"></path><path class="fillCls10" d="M60.3646 125.969C60.653 125.73 60.7495 125.328 60.6408 124.968C60.4391 124.299 60.0493 123.137 59.6998 122.852C59.1976 122.446 58.6734 122.686 58.5426 123.011C58.4119 123.336 59.1548 124.238 59.4469 125.336C59.6962 126.267 60.075 126.21 60.3646 125.969Z" fill="#000000" stroke-width="2px"></path><path class="fillCls10" d="M58.8041 128.325C59.0925 128.084 59.189 127.683 59.0815 127.324C58.8786 126.654 58.49 125.492 58.1393 125.207C57.6383 124.802 57.1129 125.041 56.9821 125.366C56.8513 125.691 57.5931 126.593 57.8864 127.692C58.1357 128.623 58.5145 128.565 58.8041 128.325Z" fill="#000000" stroke-width="2px"></path><path class="fillCls10" d="M57.4037 130.707C57.6921 130.468 57.7886 130.066 57.6798 129.707C57.4782 129.037 57.0896 127.875 56.7389 127.59C56.2367 127.184 55.7125 127.424 55.5817 127.749C55.451 128.074 56.1927 128.976 56.486 130.074C56.7353 131.007 57.1141 130.949 57.4037 130.707Z" fill="#000000" stroke-width="2px"></path><path class="fillCls4" d="M105.775 88.6731C109.612 86.768 114.255 88.5741 115.798 92.5712L115.868 92.7532C117.506 96.9043 115.461 101.595 111.305 103.218L70.2852 120.118L65.9863 108.418L105.775 88.6731Z" fill="#841518" stroke-width="2px"></path><path class="fillCls2" d="M76.8379 32.0353C76.8379 32.0353 79.1731 28.561 81.9934 27.7685C84.8138 26.976 87.865 28.3306 88.3917 29.398C89.0858 30.8067 88.7473 34.3483 87.8565 35.2867C86.9669 36.2262 76.8379 32.0353 76.8379 32.0353Z" fill="rgba(255,182,109,1)" stroke-width="2px"></path><path class="fillCls5" d="M76.1348 35.9022L76.4733 42.7682C76.4733 42.7682 79.9254 45.1903 81.9929 43.5787C84.0605 41.9672 85.208 41.1472 85.2288 38.856C85.2495 36.5658 84.5909 35.3874 84.5909 35.3874C84.5909 35.3874 83.4141 34.6765 80.6952 34.5352C77.9763 34.394 76.1348 35.9022 76.1348 35.9022Z" fill="#F28377" stroke-width="2px"></path><path class="fillCls5" d="M86.499 39.3403C86.499 39.3403 87.4986 39.7253 87.5951 40.4362C87.8469 42.2847 86.6762 42.6127 86.6762 42.6127L86.9841 51.0267C87.0184 51.9491 86.5931 52.8392 85.8294 53.3577C85.1548 53.8156 84.1565 54.2252 82.7414 54.227C81.4877 54.2289 80.5907 53.8374 79.9798 53.3995C79.2906 52.9055 78.8885 52.1035 78.8726 51.2551L78.7969 47.2443L86.499 39.3403Z" fill="#F28377" stroke-width="2px"></path><path class="fillCls6" d="M85.0923 44.2739C85.0923 44.2739 84.8223 46.4239 82.7864 48.0591C80.7506 49.6944 78.7881 49.9578 78.7881 49.9578L78.7539 47.2458L85.0923 44.2739Z" fill="#000000" stroke-width="2px"></path><path class="fillCls3" d="M87.4448 36.6144C87.7515 37.8714 87.2138 39.7862 87.2138 39.7862C86.4513 39.5114 85.8586 40.4574 85.7609 41.2101C85.6216 42.286 85.3796 43.799 85.0301 44.7583C84.4362 46.3821 82.3906 48.6117 78.4779 47.9737C74.1936 47.276 76.4811 42.3609 76.4811 42.3609C76.4811 42.3609 78.1516 42.6965 79.4921 42.2954C80.8314 41.8935 82.2611 42.414 82.8758 42.4443C83.4904 42.4747 83.5625 42.0898 84.2664 40.0432C84.8566 38.3274 84.6855 36.2153 84.6159 35.5783C84.6024 35.455 84.5914 35.3877 84.5914 35.3877L87.4448 36.6144Z" fill="#8E191C" stroke-width="2px"></path><path class="fillCls15" d="M78.2734 43.4219L80.4131 42.8218C80.4131 42.8218 80.7602 43.6901 79.8083 44.0713C78.6877 44.5186 78.2734 43.4219 78.2734 43.4219Z" fill="#FFFFFF" stroke-width="2px"></path><path class="fillCls12" d="M80.8694 40.2749C81.1199 40.2749 81.3227 40.072 81.3227 39.8218C81.3227 39.5715 81.1199 39.3687 80.8694 39.3687C80.6189 39.3687 80.416 39.5715 80.416 39.8218C80.416 40.072 80.6189 40.2749 80.8694 40.2749Z" fill="#111111" stroke-width="2px"></path><path class="fillCls12" d="M77.2568 40.3359C77.5073 40.3359 77.7102 40.1331 77.7102 39.8828C77.7102 39.6325 77.5073 39.4297 77.2568 39.4297C77.0075 39.4297 76.8047 39.6325 76.8047 39.8828C76.8047 40.1331 77.0075 40.3359 77.2568 40.3359Z" fill="#111111" stroke-width="2px"></path><path class="fillCls2" d="M87.5253 37.385C87.5253 37.385 88.4858 36.1536 88.6654 35.3943C88.8438 34.6359 88.7094 34.3326 87.821 33.8634C86.5795 33.2083 78.4081 30.9001 78.0879 30.7607C77.6065 30.5512 77.0443 30.7276 76.7621 31.1711C76.3771 31.7769 75.925 32.594 75.8285 33.2225C75.6537 34.3592 78.3042 34.7033 81.8247 35.0369C85.3453 35.3706 87.5253 37.385 87.5253 37.385Z" fill="rgba(255,182,109,1)" stroke-width="2px"></path><path class="fillCls3" d="M82.6602 34.6044C82.6712 35.5268 81.7792 36.4083 79.9401 36.432C78.101 36.4557 77.2163 35.8538 77.2163 35.8538C77.2163 35.8538 75.9259 36.9212 74.3349 35.7495C72.9064 34.6973 73.5308 32.953 74.9483 32.589C76.5601 32.1748 77.2676 33.0487 77.2676 33.0487C77.2676 33.0487 78.5031 31.9217 80.1686 32.2146C81.5959 32.4649 82.6456 33.4128 82.6602 34.6044Z" fill="#8E191C" stroke-width="2px"></path></g><g class="working16-2" style="animation-duration: 4s;"><path class="fillCls1" d="M127.905 26.9635C125.932 25.2831 123.676 24.474 120.971 25.3698C117.679 26.4645 116.449 29.891 116.158 31.1791C115.403 34.5208 117.428 38.2583 120.628 39.4753C123.829 40.6923 127.811 39.2609 129.526 36.2942C131.241 33.3275 130.513 29.1849 127.905 26.9635Z" fill="#FF2B4A" stroke-width="2px"></path><path class="fillCls13" d="M124.583 31.5462C124.161 31.1868 123.678 31.0134 123.099 31.205C122.395 31.4385 122.131 32.1729 122.069 32.4493C121.998 32.8109 122.054 33.1859 122.229 33.5104C122.403 33.835 122.685 34.089 123.026 34.2292C123.373 34.3497 123.752 34.3479 124.098 34.224C124.445 34.1 124.738 33.8614 124.931 33.5477C125.107 33.2238 125.168 32.8498 125.105 32.4865C125.042 32.1231 124.858 31.7918 124.583 31.5462V31.5462Z" fill="#DE0020" stroke-width="2px"></path><path class="fillCls13" d="M120.962 28.7851C120.632 28.7367 120.292 28.8106 119.945 29.1162C119.798 29.2456 119.68 29.4042 119.598 29.5819C119.516 29.7596 119.472 29.9524 119.469 30.148C119.474 30.5914 119.881 30.8778 120.366 30.7775C120.852 30.6771 121.359 30.2173 121.499 29.7466C121.638 29.2759 121.399 28.8471 120.962 28.7851Z" fill="#DE0020" stroke-width="2px"></path><path class="fillCls13" d="M125.421 38.1522C125.844 38.2179 126.283 38.1266 126.731 37.7398C126.921 37.5752 127.075 37.3728 127.182 37.1455C127.289 36.9182 127.348 36.6711 127.355 36.4198C127.355 35.8505 126.835 35.482 126.209 35.5987C125.583 35.7155 124.932 36.3048 124.743 36.9088C124.554 37.5127 124.861 38.0673 125.421 38.1522Z" fill="#DE0020" stroke-width="2px"></path><path class="fillCls13" d="M117.143 31.1548C117.041 31.1977 116.95 31.2636 116.877 31.3475C116.804 31.4313 116.751 31.5308 116.723 31.6383C116.688 31.7499 116.676 31.8676 116.688 31.9839C116.701 32.1003 116.738 32.2128 116.796 32.3142C116.936 32.5396 117.231 32.5596 117.451 32.3608C117.563 32.2473 117.646 32.1079 117.692 31.9549C117.738 31.8018 117.746 31.6399 117.715 31.4832C117.641 31.1976 117.387 31.0526 117.143 31.1548Z" fill="#DE0020" stroke-width="2px"></path><path class="fillCls13" d="M126.483 28.2997C126.464 28.1517 126.41 28.0104 126.327 27.8865C126.244 27.7626 126.133 27.6596 126.004 27.5854C125.871 27.5006 125.722 27.4443 125.567 27.4199C125.411 27.3956 125.253 27.4038 125.1 27.444C124.758 27.5461 124.629 27.9229 124.811 28.2778C124.919 28.4635 125.071 28.6197 125.254 28.7329C125.436 28.846 125.644 28.9124 125.858 28.9264C126.254 28.9264 126.531 28.6472 126.483 28.2997Z" fill="#DE0020" stroke-width="2px"></path><path class="fillCls13" d="M127.583 32.27C127.667 32.1899 127.732 32.0916 127.772 31.9827C127.812 31.8737 127.827 31.7569 127.815 31.6414C127.809 31.5184 127.777 31.398 127.721 31.288C127.666 31.178 127.588 31.0808 127.493 31.0028C127.272 30.8331 126.975 30.9234 126.834 31.1999C126.766 31.3527 126.737 31.5199 126.749 31.6867C126.76 31.8536 126.813 32.015 126.901 32.1568C127.079 32.4123 127.382 32.4597 127.583 32.27Z" fill="#DE0020" stroke-width="2px"></path><path class="fillCls13" d="M118.533 33.773C118.35 34.1489 118.312 34.5831 118.545 35.1104C118.645 35.3337 118.79 35.5339 118.971 35.6983C119.151 35.8628 119.365 35.9878 119.596 36.0656C120.128 36.2252 120.617 35.8466 120.684 35.2308C120.75 34.6151 120.389 33.8378 119.88 33.4975C119.371 33.1573 118.772 33.2713 118.533 33.773Z" fill="#DE0020" stroke-width="2px"></path><path class="fillCls13" d="M123.541 34.2915C123.607 34.3257 123.679 34.3444 123.753 34.3462C123.827 34.3479 123.9 34.3326 123.967 34.3015C124.04 34.2724 124.105 34.2285 124.159 34.1728C124.213 34.117 124.255 34.0506 124.282 33.9777C124.339 33.8098 124.224 33.6502 124.029 33.6228C123.923 33.6131 123.816 33.6297 123.718 33.6711C123.62 33.7125 123.534 33.7774 123.468 33.86C123.351 34.0187 123.386 34.2103 123.541 34.2915Z" fill="#DE0020" stroke-width="2px"></path><path class="fillCls13" d="M129.478 32.9515C129.523 32.9103 129.557 32.8594 129.579 32.8025C129.601 32.7457 129.609 32.6846 129.604 32.624C129.601 32.5597 129.585 32.4967 129.556 32.4391C129.527 32.3814 129.487 32.3304 129.438 32.2892C129.41 32.2687 129.377 32.2548 129.343 32.2487C129.309 32.2425 129.274 32.2444 129.24 32.254C129.207 32.2636 129.176 32.2807 129.15 32.3041C129.125 32.3274 129.105 32.3564 129.092 32.3887C129.055 32.4683 129.039 32.5558 129.044 32.6433C129.049 32.7309 129.076 32.8158 129.122 32.8904C129.139 32.9208 129.162 32.9471 129.19 32.9672C129.219 32.9873 129.251 33.0008 129.285 33.0067C129.319 33.0126 129.354 33.0107 129.388 33.0011C129.421 32.9916 129.452 32.9746 129.478 32.9515V32.9515Z" fill="#DE0020" stroke-width="2px"></path><path class="fillCls13" d="M121.782 25.937C121.724 25.8919 121.656 25.8609 121.583 25.8463C121.511 25.8318 121.436 25.8341 121.365 25.8531C121.289 25.8696 121.217 25.9016 121.154 25.9471C121.092 25.9927 121.039 26.0507 121 26.1177C120.915 26.2727 121 26.4497 121.189 26.5109C121.291 26.5387 121.399 26.5409 121.502 26.5172C121.606 26.4935 121.702 26.4446 121.782 26.3749C121.921 26.239 121.921 26.0447 121.782 25.937Z" fill="#DE0020" stroke-width="2px"></path><path class="fillCls13" d="M120.755 38.0141C120.787 38.126 120.844 38.2292 120.923 38.3154C121.001 38.4016 121.098 38.4687 121.206 38.5113C121.318 38.5619 121.439 38.5887 121.562 38.59C121.684 38.5912 121.806 38.5669 121.919 38.5186C122.17 38.4018 122.228 38.0962 122.047 37.8435C121.943 37.7121 121.809 37.6085 121.655 37.5416C121.501 37.4748 121.334 37.4469 121.167 37.4603C120.861 37.5014 120.68 37.7486 120.755 38.0141Z" fill="#DE0020" stroke-width="2px"></path></g><g class="working16-1" style="animation-duration: 4s;"><path class="fillCls14" d="M41.7699 37.461C42.3857 38.9936 40.4617 40.633 38.3817 41.7487C33.9955 44.1023 20.5067 49.1472 13.9795 49.804C11.0748 50.0968 9.60878 49.3187 9.40717 48.5387C9.11889 47.4257 10.2392 46.1613 12.362 44.8705C17.0146 42.0424 24.8875 39.5519 24.8875 39.5519C28.9753 38.2893 32.6417 36.9976 37.3262 36.4311C38.1409 36.3325 41.228 36.1099 41.7699 37.461ZM40.9689 34.4679C34.8567 35.2469 30.0536 36.931 24.7077 38.5886C24.7077 38.5886 14.4119 41.8518 8.30971 45.5127C5.52729 47.1821 4.05124 48.8069 4.41341 50.2227C4.66793 51.2144 6.57184 52.1896 10.3632 51.7836C18.8847 50.8714 36.5362 44.2866 42.2844 41.2351C45.0094 39.7882 47.5382 37.6772 46.7545 35.7295C46.0585 34.0163 42.0308 34.3338 40.9689 34.4679Z" fill="rgba(0,39,98,1)" stroke-width="2px"></path><path class="fillCls1" d="M32.9407 34.5688C29.8801 31.9624 26.3824 30.7081 22.1878 32.0965C17.0791 33.7879 15.1734 39.11 14.7218 41.1079C13.5505 46.2914 16.6914 52.0889 21.6551 53.9773C26.6187 55.8657 32.7948 53.6434 35.455 49.0428C38.1151 44.4423 36.9903 38.0144 32.9407 34.5688Z" fill="#FF2B4A" stroke-width="2px"></path><path class="fillCls14" d="M46.7489 35.7301C46.2618 34.5241 44.1253 34.3234 42.5297 34.3617C41.7908 35.1006 41.0409 35.8295 40.2372 36.4973C40.946 36.6451 41.5554 36.9325 41.7689 37.4643C42.3846 38.9969 40.4607 40.6363 38.3807 41.752C33.9945 44.1056 20.5057 49.1505 13.9784 49.8073C11.0738 50.1002 9.60774 49.322 9.40613 48.542C9.17989 47.668 9.82486 46.701 11.1394 45.7021C10.6459 45.3664 10.1286 45.0635 9.60774 44.7743C9.15799 45.0197 8.72284 45.266 8.30776 45.516C5.52534 47.1855 4.04929 48.8102 4.41146 50.226C4.66598 51.2177 6.56989 52.1929 10.3613 51.7869C18.8828 50.8747 36.5343 44.2899 42.2825 41.2384C45.0056 39.7888 47.5362 37.6778 46.7489 35.7301Z" fill="rgba(0,39,98,1)" stroke-width="2px"></path></g><g class="working16-3" style="animation-duration: 4s;"><path class="fillCls1" d="M137.026 88.9726C134.038 86.4283 130.624 85.204 126.529 86.5596C121.542 88.2099 119.681 93.4016 119.24 95.3566C118.096 100.417 121.162 106.077 126.012 107.92C130.863 109.764 136.887 107.595 139.485 103.103C142.082 98.6107 140.975 92.3334 137.026 88.9726Z" fill="#FF2B4A" stroke-width="2px"></path><path class="fillCls14" d="M129.829 87.2145C130.136 86.834 130.41 86.4272 130.71 86.0422C129.396 85.9181 128.007 86.0696 126.528 86.5594C124.36 87.2765 122.787 88.665 121.656 90.1647C124.637 90.7385 127.917 89.5836 129.829 87.2145Z" fill="rgba(0,39,98,1)" stroke-width="2px"></path><path class="fillCls14" d="M137.094 89.0324C135.411 88.8955 133.686 89.306 132.076 89.8607C130.09 90.5413 128.163 91.4389 126.099 91.8257C124.366 92.1514 122.465 92.0638 120.932 91.2464C120.161 92.5218 119.592 93.9083 119.243 95.3571C118.722 97.6633 119.075 100.093 120.072 102.23C122.364 100.95 125.032 100.513 127.612 100.997C130.189 101.493 132.552 102.897 135.162 103.156C136.793 103.31 138.435 103.011 139.906 102.291C141.929 97.9096 140.76 92.2098 137.094 89.0324Z" fill="rgba(0,39,98,1)" stroke-width="2px"></path><path class="fillCls1" d="M139.988 93.1169C136.921 92.6247 133.777 93.0115 130.92 94.2326C129.889 94.6769 128.774 95.4304 128.743 96.5516C128.726 97.1619 129.059 97.743 129.518 98.1462C129.977 98.5495 130.548 98.7994 131.123 99.0038C134.279 100.105 137.725 100.036 140.835 98.8095C141.018 96.8714 140.728 94.9178 139.988 93.1169Z" fill="#FF2B4A" stroke-width="2px"></path><path class="fillCls1" d="M123.327 94.4804C122.089 94.2251 120.823 94.1355 119.562 94.2141C119.414 94.6583 119.309 95.0488 119.239 95.3571C118.924 96.792 118.92 98.2777 119.228 99.7141C120.394 99.7208 121.555 99.5826 122.687 99.3027C123.526 99.0947 124.377 98.79 124.992 98.1824C125.607 97.5749 125.926 96.5951 125.551 95.8151C125.16 95.0059 124.206 94.6629 123.327 94.4804Z" fill="#FF2B4A" stroke-width="2px"></path><path class="fillCls14" d="M133.161 105.985C131.981 105.555 130.856 104.981 129.669 104.569C126.992 103.653 124.095 103.594 121.383 104.4C122.579 105.964 124.166 107.22 126.013 107.921C129.362 109.198 133.271 108.554 136.23 106.553C135.188 106.598 134.143 106.342 133.161 105.985Z" fill="rgba(0,39,98,1)" stroke-width="2px"></path><path class="fillCls1" d="M126.012 107.921C128.059 108.699 130.317 108.762 132.437 108.237C130.788 107.108 128.873 106.428 126.882 106.263C126.317 106.218 125.727 106.22 125.213 106.459C124.892 106.607 124.63 106.858 124.469 107.173C124.961 107.467 125.477 107.717 126.012 107.921V107.921Z" fill="#FF2B4A" stroke-width="2px"></path></g></svg>