<svg width="150" height="150" viewBox="0 0 150 150" fill="none" xmlns="http://www.w3.org/2000/svg" style="width: 200px; height: 200px; transform: rotateY(180deg);"><style>
     .working15-1 {animation:working15-1 4s infinite;}
     @keyframes working15-1 {
         0%{transform: translate3d(0, -8px, 0);}
         50%{transform: translate3d(0, 8px, 0);}
         100%{transform: translate3d(0, -8px, 0);}
     }

     .working15-2 {animation:working15-2 4s 400ms infinite;}
     .working15-3 {animation:working15-2 4s 600ms infinite;}
     .working15-4 {animation:working15-2 4s 800ms infinite;}
     @keyframes working15-2 {
         0%{transform: translate3d(0, 0, 0);}
         50%{transform: translate3d(0, 10px, 0);}
         100%{transform: translate3d(0, 0, 0);}
     }
     
     @media (prefers-reduced-motion: reduce) {
         .working15-1, .working15-2, .working15-3, .working15-4 {
             animation: none;
         }
     }
    </style><g class="working15-1" style="animation-duration: 4s;"><path class="fillCls5" d="M43.0254 101.618C34.2849 96.8688 23.9589 91.0084 23.9589 91.0084C23.9589 91.0084 16.9199 92.5957 14.0408 92.5711C11.1616 92.5465 3.35626 91.8276 4.46193 89.4885C5.4043 87.4998 24.9579 78.4501 27.4028 77.7604C30.0857 76.9987 56.3217 91.0239 56.3217 91.0239L52.3305 99.9276L43.0254 101.618Z" fill="#FEB0A3" stroke-width="2px"></path><path class="fillCls1" d="M22.7475 79.9121C21.8927 81.2203 19.6002 84.9761 20.2525 87.0524C20.9047 89.1288 23.107 91.5134 23.107 91.5134L18.3048 92.3883C18.3048 92.3883 16.285 89.5092 15.8024 87.6445L12.2081 88.8943C12.2081 88.8943 12.6496 91.1412 13.394 92.8171L9.47127 92.4522C9.47127 92.4522 7.61846 90.052 7.73796 87.4164L16.6955 81.7896L22.7475 79.9121Z" fill="#FF2B4A" stroke-width="2px"></path><path class="fillCls7" d="M28.3659 76.1712L27.9216 75.539C27.785 75.3454 27.5843 75.2065 27.3551 75.1467C27.1258 75.087 26.8828 75.1102 26.6691 75.2124C24.2178 76.3892 18.2689 79.1908 14.2057 81.0108C11.0757 82.412 5.24356 85.646 3.0158 86.8958C2.80756 87.0116 2.64732 87.1977 2.56375 87.4209C2.48018 87.644 2.47873 87.8896 2.55966 88.1137L2.82514 88.8517C2.87488 88.989 2.95399 89.1138 3.05693 89.2173C3.15987 89.3209 3.28418 89.4007 3.42116 89.4513C3.55815 89.5018 3.70452 89.5219 3.85005 89.51C3.99559 89.4982 4.13678 89.4547 4.26378 89.3826C6.97322 87.8391 14.161 83.7503 15.7036 83.0132C17.2463 82.2761 24.9933 78.9427 27.9426 77.6792C28.081 77.6204 28.2044 77.5312 28.3037 77.4183C28.403 77.3054 28.4757 77.1716 28.5163 77.0268C28.557 76.882 28.5645 76.73 28.5385 76.5819C28.5125 76.4338 28.4535 76.2934 28.3659 76.1712V76.1712Z" fill="#000000" stroke-width="2px"></path><path class="fillCls7" d="M98.994 37.9469C99.3808 37.1888 99.462 36.3394 98.5315 34.742C97.601 33.1447 95.4873 32.6575 94.5176 32.6794C92.7076 32.7196 91.2516 34.4793 89.6542 34.5806C88.0569 34.6818 85.0628 33.63 82.939 33.994C80.5151 34.4091 80.3382 36.6231 77.6406 37.1085C75.9219 37.4177 72.8475 36.3394 70.5623 37.9469C67.8629 39.8444 68.3172 42.9735 67.9933 44.632C67.6695 46.2905 65.5256 48.1506 66.1332 50.4157C66.7408 52.6809 68.641 51.8754 69.3262 53.1662C70.0113 54.4571 69.4073 57.8188 72.3604 59.917C75.3134 62.0152 91.4925 53.8897 92.9484 51.7458C94.4044 49.602 97.8482 42.541 97.8482 42.541L98.994 37.9469Z" fill="#000000" stroke-width="2px"></path><path class="fillCls6" d="M22.7819 89.9175C22.4744 90.1675 21.8696 90.7677 21.0586 91.6125C22.7144 91.2886 23.9578 91.0086 23.9578 91.0086C23.9578 91.0086 34.2856 96.869 43.0242 101.618L52.3293 99.9278L56.3205 91.0241L55.0543 90.3527C55.0543 90.3527 24.9439 88.1559 22.7819 89.9175Z" fill="#FD8571" stroke-width="2px"></path><path class="fillCls6" d="M78.3191 99.426C76.2473 101.99 72.5581 105.929 69.1289 106.642C65.0429 107.491 57.1152 105.59 57.1152 105.59L62.7375 96.5296L79.0389 93.5957L78.3191 99.426Z" fill="#FD8571" stroke-width="2px"></path><path class="fillCls1" d="M98.5662 39.5078L98.0508 41.9043L99.4155 42.1926L98.5662 39.5078Z" fill="#FF2B4A" stroke-width="2px"></path><path class="fillCls5" d="M57.4291 107.218C49.257 106.631 24.9989 104.907 24.9989 104.907C24.9989 104.907 19.2516 109.275 16.6261 110.448C14.0006 111.622 6.59841 114.211 6.6349 111.622C6.66683 109.421 20.6966 93.0714 22.6324 91.4248C24.7562 89.6176 54.446 91.4777 54.446 91.4777L60.5582 83.873L77.1825 96.4532C77.1825 96.4532 69.129 108.057 57.4291 107.218Z" fill="#FEB0A3" stroke-width="2px"></path><path class="fillCls1" d="M19.2859 95.3086C19.0524 96.854 18.5269 101.223 19.9829 102.84C21.4389 104.458 24.432 105.712 24.432 105.712L20.4281 108.504C20.4281 108.504 17.3939 106.724 16.1806 105.227L13.4301 107.856C13.4301 107.856 14.7647 109.717 16.1404 110.93L12.4193 112.225C12.4193 112.225 9.73629 110.811 8.75195 108.363L14.5631 99.526L19.2859 95.3086Z" fill="#FF2B4A" stroke-width="2px"></path><path class="fillCls7" d="M22.8465 89.5755L22.1787 89.1851C21.9738 89.0653 21.733 89.022 21.4992 89.0629C21.2653 89.1038 21.0536 89.2263 20.9015 89.4086C19.1609 91.4977 14.9134 96.517 11.9722 99.8596C9.70707 102.435 5.74508 107.796 4.23802 109.862C4.09699 110.053 4.02873 110.289 4.04545 110.527C4.06216 110.764 4.16274 110.988 4.32924 111.158L4.8766 111.719C4.9789 111.823 5.10269 111.904 5.23933 111.955C5.37598 112.007 5.52219 112.028 5.66777 112.017C5.81335 112.006 5.95479 111.963 6.08221 111.892C6.20964 111.821 6.31999 111.722 6.40557 111.604C8.2301 109.075 13.0651 102.37 14.1599 101.056C15.2546 99.741 20.9198 93.4946 23.0773 91.12C23.1786 91.0098 23.254 90.8782 23.2979 90.7351C23.3418 90.5919 23.3531 90.4407 23.3309 90.2926C23.3088 90.1445 23.2538 90.0033 23.17 89.8792C23.0861 89.7551 22.9756 89.6513 22.8465 89.5755V89.5755Z" fill="#000000" stroke-width="2px"></path><path class="fillCls5" d="M98.98 36.3421C99.0603 37.4368 98.9198 42.9907 97.2002 43.9066C96.0316 44.5278 95.0153 43.2589 95.0153 43.2589C95.0153 43.2589 93.1908 50.1757 92.4674 51.1463C91.7439 52.117 88.1797 48.9222 88.1797 48.9222L92.9527 40.0231C92.9527 40.0231 90.1082 37.944 92.1435 36.3421C93.5958 35.1999 94.5455 37.5052 94.5455 37.5052C94.5455 37.5052 95.1376 36.7015 95.6676 36.5802C96.1976 36.4588 96.776 36.6504 97.2458 36.686C97.8443 36.7288 98.4432 36.61 98.98 36.3421V36.3421Z" fill="#FEB0A3" stroke-width="2px"></path><path class="fillCls6" d="M95.0166 43.2588C94.6879 42.9215 94.379 42.5654 94.0915 42.1924L93.2422 44.4065C93.5918 44.8436 93.9639 45.2623 94.357 45.6608L95.0166 43.2588Z" fill="#FD8571" stroke-width="2px"></path><path class="fillCls3" d="M90.1227 81.0382C89.2734 83.6674 79.0405 99.9277 79.0405 99.9277L77.4951 98.8494L76.6941 99.9778C76.6941 99.9778 70.2225 94.2652 66.3362 91.7975C62.45 89.3299 57.8047 86.6624 57.8047 86.6624C57.8047 86.6624 68.4974 70.57 69.8585 68.4581C71.2196 66.3461 87.6596 70.0764 87.6596 70.0764L90.1227 81.0382Z" fill="#0061FA" stroke-width="2px"></path><path class="fillCls4" d="M82.882 91.498C83.7715 89.8805 84.8078 87.7695 84.8078 87.7695C84.1802 88.8004 80.4344 94.4911 77.4941 98.8536L78.3152 99.4301C79.2512 97.8227 82.1385 92.8463 82.882 91.498Z" fill="#0043AE" stroke-width="2px"></path><path class="fillCls4" d="M88.4368 73.5498H82.6484C82.7287 75.8204 83.568 85.2852 85.7191 89.0456C87.8611 85.4604 89.7733 82.1124 90.1199 81.0386L88.4368 73.5498Z" fill="#0043AE" stroke-width="2px"></path><path class="fillCls1" d="M97.4509 40.8484C97.607 40.5377 97.427 40.1319 97.0488 39.9418C96.6706 39.7518 96.2376 39.8496 96.0815 40.1602C95.9254 40.4708 96.1054 40.8767 96.4835 41.0667C96.8617 41.2568 97.2948 41.159 97.4509 40.8484Z" fill="#FF2B4A" stroke-width="2px"></path><path class="fillCls7" d="M97.7489 39.2066C97.793 39.0668 97.7415 38.9259 97.6338 38.892C97.5262 38.8581 97.4032 38.9439 97.3591 39.0837C97.315 39.2236 97.3666 39.3644 97.4742 39.3984C97.5818 39.4323 97.7048 39.3465 97.7489 39.2066Z" fill="#000000" stroke-width="2px"></path><path class="fillCls5" d="M129.054 72.969C129.054 72.969 129.337 72.8477 129.195 72.3222C129.054 71.7967 127.918 70.785 127.918 70.785C127.918 70.785 128.557 70.7522 128.363 70.1984C128.148 69.5863 126.624 68.6813 125.997 68.3785C125.37 68.0756 122.721 67.6094 120.375 67.8521C118.028 68.0947 99.9882 74.0811 99.9882 74.0811C99.9882 74.0811 96.5498 61.9059 96.0243 60.0859L83.5664 64.6573C83.5664 64.6573 89.0674 80.6138 90.6447 84.1023C92.222 87.5908 96.7423 87.7733 99.2684 86.3173C101.794 84.8613 112.153 77.9746 114.701 76.64C117.249 75.3053 120.83 74.6987 122.256 74.6886C123.32 74.6804 127.777 75.4184 128.404 75.2743C129.03 75.1302 128.747 74.3447 128.747 74.3447C128.747 74.3447 129.42 74.6978 129.62 74.0309C129.782 73.4999 129.054 72.969 129.054 72.969ZM123.836 70.9501C123.836 70.9501 125.056 70.8671 125.398 70.9958C125.739 71.1244 126.649 71.9892 126.649 71.9892L123.836 70.9501Z" fill="#FEB0A3" stroke-width="2px"></path><path class="fillCls6" d="M98.0762 67.3057L98.4648 74.5892L99.991 74.0802C99.991 74.0802 99.0496 70.7458 98.0762 67.3057Z" fill="#FD8571" stroke-width="2px"></path><path class="fillCls7" d="M115.656 76.1891L139.264 74.5838C139.3 75.1149 139.124 75.6385 138.774 76.0396C138.424 76.4406 137.929 76.6862 137.398 76.7223L117.789 78.0557C117.258 78.0918 116.734 77.9154 116.333 77.5655C115.932 77.2155 115.687 76.7205 115.65 76.1895V76.1895L115.656 76.1891Z" fill="#000000" stroke-width="2px"></path><path class="fillCls7" d="M138.84 74.8672L147.501 55.4688" stroke="black" stroke-width="2px" stroke-linecap="round" stroke-linejoin="round" fill="#000000"></path><path class="fillCls1" d="M92.4679 51.1459C92.9532 51.7525 94.733 54.7867 96.0257 60.0861L83.5678 64.6575L87.5088 76.1803C87.5088 76.1803 80.9788 72.4236 77.5806 71.1692C74.4241 70.0043 69.8555 68.4589 69.8555 68.4589C69.8555 68.4589 79.4014 53.3317 83.4054 50.5784C84.8243 49.6184 86.4699 49.0466 88.1784 48.9199L92.4679 51.1459Z" fill="#FF2B4A" stroke-width="2px"></path><path class="fillCls2" d="M82.0723 57.5371L82.6497 73.5493C85.5152 75.0089 87.6581 76.2596 87.6581 76.2596L83.5693 64.6565L82.9417 64.8781L82.0723 57.5371Z" fill="#DE0020" stroke-width="2px"></path><path class="fillCls8" d="M135.783 75.5924L134.459 75.6825C134.33 75.6912 134.234 75.802 134.242 75.9299C134.251 76.0578 134.362 76.1545 134.49 76.1457L135.814 76.0557C135.943 76.047 136.039 75.9362 136.031 75.8083C136.022 75.6803 135.911 75.5837 135.783 75.5924Z" fill="#FFFFFF" stroke-width="2px"></path><path class="fillCls8" d="M133.467 75.7496L132.142 75.8397C132.014 75.8484 131.917 75.9592 131.926 76.0871C131.935 76.215 132.046 76.3117 132.174 76.303L133.498 76.2129C133.626 76.2042 133.723 76.0934 133.714 75.9655C133.706 75.8376 133.595 75.7409 133.467 75.7496Z" fill="#FFFFFF" stroke-width="2px"></path></g><g class="working15-2" style="animation-duration: 4s;"><path class="fillCls1" d="M136.85 31.0807C134.878 29.4003 132.621 28.5912 129.917 29.487C126.624 30.5817 125.395 34.0082 125.103 35.2963C124.348 38.638 126.373 42.3755 129.574 43.5925C132.774 44.8095 136.756 43.3781 138.471 40.4114C140.186 37.4447 139.458 33.3021 136.85 31.0807Z" fill="#FF2B4A" stroke-width="2px"></path><path class="fillCls2" d="M133.528 35.6634C133.106 35.3039 132.623 35.1306 132.044 35.3222C131.34 35.5557 131.076 36.2901 131.014 36.5665C130.943 36.9281 131 37.3031 131.174 37.6276C131.349 37.9522 131.63 38.2062 131.971 38.3464C132.319 38.4669 132.697 38.4651 133.044 38.3412C133.39 38.2172 133.684 37.9786 133.876 37.6649C134.052 37.3409 134.114 36.967 134.051 36.6036C133.987 36.2403 133.803 35.909 133.528 35.6634V35.6634Z" fill="#DE0020" stroke-width="2px"></path><path class="fillCls2" d="M129.907 32.9023C129.577 32.8539 129.237 32.9278 128.89 33.2334C128.743 33.3628 128.625 33.5214 128.543 33.6991C128.461 33.8767 128.417 34.0696 128.414 34.2652C128.42 34.7086 128.826 34.995 129.312 34.8947C129.797 34.7943 130.304 34.3345 130.444 33.8638C130.583 33.3931 130.344 32.9643 129.907 32.9023Z" fill="#DE0020" stroke-width="2px"></path><path class="fillCls2" d="M134.366 42.2694C134.79 42.3351 135.229 42.2438 135.676 41.857C135.866 41.6924 136.02 41.4899 136.127 41.2627C136.235 41.0354 136.294 40.7883 136.3 40.537C136.3 39.9677 135.78 39.5992 135.155 39.7159C134.529 39.8327 133.877 40.422 133.689 41.0259C133.5 41.6299 133.806 42.1845 134.366 42.2694Z" fill="#DE0020" stroke-width="2px"></path><path class="fillCls2" d="M126.089 35.2719C125.986 35.3149 125.895 35.3808 125.822 35.4647C125.749 35.5485 125.697 35.648 125.668 35.7554C125.633 35.867 125.621 35.9847 125.634 36.1011C125.646 36.2175 125.683 36.3299 125.741 36.4314C125.882 36.6568 126.176 36.6768 126.396 36.478C126.509 36.3645 126.592 36.2251 126.638 36.0721C126.684 35.919 126.691 35.757 126.66 35.6004C126.586 35.3148 126.332 35.1698 126.089 35.2719Z" fill="#DE0020" stroke-width="2px"></path><path class="fillCls2" d="M135.429 32.4168C135.409 32.2689 135.355 32.1275 135.272 32.0037C135.189 31.8798 135.078 31.7768 134.949 31.7025C134.816 31.6178 134.668 31.5615 134.512 31.5371C134.357 31.5128 134.198 31.521 134.046 31.5611C133.704 31.6633 133.574 32.0401 133.757 32.395C133.865 32.5806 134.017 32.7369 134.199 32.85C134.382 32.9632 134.589 33.0296 134.804 33.0436C135.199 33.0436 135.476 32.7644 135.429 32.4168Z" fill="#DE0020" stroke-width="2px"></path><path class="fillCls2" d="M136.528 36.3871C136.612 36.3071 136.677 36.2088 136.717 36.0998C136.757 35.9909 136.772 35.8741 136.76 35.7586C136.754 35.6356 136.722 35.5151 136.667 35.4052C136.611 35.2952 136.533 35.198 136.438 35.12C136.217 34.9503 135.921 35.0406 135.779 35.317C135.711 35.4699 135.682 35.6371 135.694 35.8039C135.706 35.9708 135.758 36.1322 135.847 36.274C136.025 36.5295 136.328 36.5769 136.528 36.3871Z" fill="#DE0020" stroke-width="2px"></path><path class="fillCls2" d="M127.478 37.8902C127.295 38.2661 127.257 38.7003 127.491 39.2276C127.59 39.4509 127.735 39.6511 127.916 39.8155C128.097 39.9799 128.31 40.105 128.542 40.1828C129.073 40.3424 129.562 39.9638 129.629 39.348C129.696 38.7323 129.334 37.955 128.825 37.6147C128.316 37.2744 127.717 37.3885 127.478 37.8902Z" fill="#DE0020" stroke-width="2px"></path><path class="fillCls2" d="M132.487 38.4087C132.552 38.4429 132.625 38.4616 132.699 38.4634C132.772 38.4651 132.846 38.4498 132.913 38.4187C132.985 38.3896 133.05 38.3457 133.104 38.29C133.158 38.2342 133.2 38.1678 133.228 38.0949C133.284 37.927 133.169 37.7673 132.974 37.74C132.868 37.7303 132.762 37.7469 132.664 37.7883C132.566 37.8297 132.48 37.8945 132.413 37.9772C132.296 38.1359 132.332 38.3275 132.487 38.4087Z" fill="#DE0020" stroke-width="2px"></path><path class="fillCls2" d="M138.423 37.0687C138.468 37.0275 138.503 36.9765 138.524 36.9197C138.546 36.8629 138.555 36.8018 138.549 36.7412C138.546 36.6769 138.53 36.6139 138.501 36.5563C138.473 36.4986 138.432 36.4476 138.383 36.4064C138.355 36.3858 138.323 36.372 138.288 36.3658C138.254 36.3597 138.219 36.3616 138.186 36.3712C138.152 36.3808 138.121 36.3979 138.096 36.4213C138.07 36.4446 138.05 36.4736 138.037 36.5059C138 36.5855 137.984 36.673 137.989 36.7605C137.994 36.8481 138.021 36.9329 138.067 37.0076C138.084 37.038 138.107 37.0642 138.136 37.0844C138.164 37.1045 138.196 37.118 138.23 37.1239C138.265 37.1298 138.3 37.1278 138.333 37.1183C138.366 37.1088 138.397 37.0918 138.423 37.0687V37.0687Z" fill="#DE0020" stroke-width="2px"></path><path class="fillCls2" d="M130.728 30.0542C130.669 30.0091 130.601 29.9781 130.529 29.9635C130.456 29.949 130.381 29.9513 130.31 29.9703C130.234 29.9868 130.163 30.0188 130.1 30.0643C130.037 30.1099 129.984 30.1679 129.945 30.2349C129.86 30.3899 129.945 30.5669 130.134 30.628C130.236 30.6559 130.344 30.6581 130.447 30.6344C130.551 30.6107 130.647 30.5618 130.727 30.4921C130.866 30.3562 130.866 30.1619 130.728 30.0542Z" fill="#DE0020" stroke-width="2px"></path><path class="fillCls2" d="M129.701 42.1313C129.733 42.2432 129.79 42.3463 129.868 42.4326C129.946 42.5188 130.043 42.5858 130.151 42.6285C130.263 42.6791 130.384 42.7059 130.507 42.7072C130.63 42.7084 130.751 42.6841 130.864 42.6358C131.116 42.519 131.173 42.2134 130.993 41.9607C130.889 41.8293 130.754 41.7256 130.6 41.6588C130.447 41.592 130.279 41.564 130.112 41.5775C129.807 41.6186 129.625 41.8658 129.701 42.1313Z" fill="#DE0020" stroke-width="2px"></path></g><g class="working15-4" style="animation-duration: 4s;"><path class="fillCls3" d="M41.7699 37.461C42.3857 38.9936 40.4617 40.633 38.3817 41.7487C33.9955 44.1023 20.5067 49.1472 13.9795 49.804C11.0748 50.0968 9.60878 49.3187 9.40717 48.5387C9.11889 47.4257 10.2392 46.1613 12.362 44.8705C17.0146 42.0424 24.8875 39.5519 24.8875 39.5519C28.9753 38.2893 32.6417 36.9976 37.3262 36.4311C38.1409 36.3325 41.228 36.1099 41.7699 37.461ZM40.9689 34.4679C34.8567 35.2469 30.0536 36.931 24.7077 38.5886C24.7077 38.5886 14.4119 41.8518 8.30971 45.5127C5.52729 47.1821 4.05124 48.8069 4.41341 50.2227C4.66793 51.2144 6.57184 52.1896 10.3632 51.7836C18.8847 50.8714 36.5362 44.2866 42.2844 41.2351C45.0094 39.7882 47.5382 37.6772 46.7545 35.7295C46.0585 34.0163 42.0308 34.3338 40.9689 34.4679Z" fill="#0061FA" stroke-width="2px"></path><path class="fillCls1" d="M32.9407 34.5688C29.8801 31.9624 26.3824 30.7081 22.1878 32.0965C17.0791 33.7879 15.1734 39.11 14.7218 41.1079C13.5505 46.2914 16.6914 52.0889 21.6551 53.9773C26.6187 55.8657 32.7948 53.6434 35.455 49.0428C38.1151 44.4423 36.9903 38.0144 32.9407 34.5688Z" fill="#FF2B4A" stroke-width="2px"></path><path class="fillCls3" d="M46.7489 35.7301C46.2618 34.5241 44.1253 34.3234 42.5297 34.3617C41.7908 35.1006 41.0409 35.8295 40.2372 36.4973C40.946 36.6451 41.5554 36.9325 41.7689 37.4643C42.3846 38.9969 40.4607 40.6363 38.3807 41.752C33.9945 44.1056 20.5057 49.1505 13.9784 49.8073C11.0738 50.1002 9.60774 49.322 9.40613 48.542C9.17989 47.668 9.82486 46.701 11.1394 45.7021C10.6459 45.3664 10.1286 45.0635 9.60774 44.7743C9.15799 45.0197 8.72284 45.266 8.30776 45.516C5.52534 47.1855 4.04929 48.8102 4.41146 50.226C4.66598 51.2177 6.56989 52.1929 10.3613 51.7869C18.8828 50.8747 36.5343 44.2899 42.2825 41.2384C45.0056 39.7888 47.5362 37.6778 46.7489 35.7301Z" fill="#0061FA" stroke-width="2px"></path></g><g class="working15-3" style="animation-duration: 4s;"><path class="fillCls1" d="M126.048 101.275C123.06 98.731 119.645 97.5067 115.55 98.8624C110.564 100.513 108.703 105.704 108.261 107.659C107.117 112.72 110.183 118.379 115.034 120.223C119.884 122.067 125.909 119.897 128.506 115.405C131.103 110.913 129.997 104.636 126.048 101.275Z" fill="#FF2B4A" stroke-width="2px"></path><path class="fillCls3" d="M118.853 99.5172C119.159 99.1368 119.434 98.7299 119.733 98.3449C118.419 98.2209 117.03 98.3723 115.551 98.8622C113.384 99.5792 111.811 100.968 110.68 102.467C113.66 103.041 116.941 101.886 118.853 99.5172Z" fill="#0061FA" stroke-width="2px"></path><path class="fillCls3" d="M126.115 101.335C124.433 101.198 122.708 101.609 121.098 102.163C119.112 102.844 117.185 103.742 115.12 104.128C113.387 104.454 111.487 104.367 109.953 103.549C109.183 104.825 108.613 106.211 108.265 107.66C107.744 109.966 108.097 112.395 109.094 114.533C111.386 113.252 114.054 112.816 116.634 113.299C119.21 113.796 121.574 115.2 124.184 115.459C125.815 115.613 127.456 115.313 128.928 114.594C130.95 110.212 129.781 104.513 126.115 101.335Z" fill="#0061FA" stroke-width="2px"></path><path class="fillCls1" d="M129.01 105.42C125.942 104.927 122.798 105.314 119.942 106.535C118.911 106.98 117.795 107.733 117.764 108.854C117.748 109.465 118.081 110.046 118.54 110.449C118.999 110.852 119.57 111.102 120.144 111.307C123.3 112.408 126.747 112.339 129.856 111.112C130.04 109.174 129.749 107.221 129.01 105.42Z" fill="#FF2B4A" stroke-width="2px"></path><path class="fillCls1" d="M112.35 106.783C111.113 106.528 109.847 106.438 108.586 106.517C108.438 106.961 108.333 107.352 108.263 107.66C107.947 109.095 107.944 110.58 108.252 112.017C109.417 112.024 110.579 111.885 111.71 111.605C112.549 111.397 113.4 111.093 114.015 110.485C114.63 109.878 114.95 108.898 114.575 108.118C114.183 107.309 113.229 106.966 112.35 106.783Z" fill="#FF2B4A" stroke-width="2px"></path><path class="fillCls3" d="M122.183 118.287C121.002 117.858 119.877 117.284 118.69 116.871C116.013 115.956 113.117 115.897 110.404 116.703C111.6 118.267 113.188 119.522 115.034 120.224C118.383 121.501 122.292 120.856 125.251 118.856C124.21 118.9 123.164 118.645 122.183 118.287Z" fill="#0061FA" stroke-width="2px"></path><path class="fillCls1" d="M115.034 120.224C117.081 121.002 119.339 121.065 121.459 120.539C119.81 119.411 117.895 118.731 115.903 118.566C115.338 118.52 114.748 118.522 114.235 118.761C113.914 118.91 113.652 119.161 113.49 119.476C113.982 119.769 114.498 120.02 115.034 120.224V120.224Z" fill="#FF2B4A" stroke-width="2px"></path></g></svg>