<svg width="150" height="150" viewBox="0 0 150 150" fill="none" xmlns="http://www.w3.org/2000/svg" style="width: 200px; height: 200px;"><style>
     .satellite5-move {animation:satellite5-move 4s infinite;}
     @keyframes satellite5-move {
         0%{transform: translate3d(0, -8px, 0);}
         50%{transform: translate3d(0, 8px, 0);}
         100%{transform: translate3d(0, -8px, 0);}
     }

     .satellite5-right-star {animation:satellite5-right-star 4s 200ms infinite;}
     .satellite5-left-star {animation:satellite5-right-star 4s 400ms infinite;}
     .satellite5-right-spec {animation:satellite5-right-star 4s 600ms infinite;}
     .satellite5-left-spec {animation:satellite5-right-star 4s 800ms infinite;}
     .satellite5-bottom-spec {animation:satellite5-right-star 4s 300ms infinite;}
     .satellite5-right-rock {animation:satellite5-right-star 4s 1s infinite;}
     .satellite5-left-rock {animation:satellite5-right-star 4s 1200ms infinite;}
     @keyframes satellite5-right-star {
         0%{transform: translate3d(0, 0, 0);}
         50%{transform: translate3d(0, 10px, 0);}
         100%{transform: translate3d(0, 0, 0);}
     }
     
     @media (prefers-reduced-motion: reduce) {
         .satellite5-move, .satellite5-right-star, .satellite5-left-star, .satellite5-right-spec, .satellite5-left-spec, .satellite5-bottom-spec, .satellite5-right-rock, .satellite5-left-rock {
             animation: none;
         }
     }
    </style><g class="satellite5-right-rock" style="animation-duration: 4s;"><path class="fillCls12" d="M76.1585 23.1665C75.5356 24.8794 76.8764 27.1221 77.9619 28.5553C78.5942 29.3902 79.7793 29.449 80.54 28.7292C81.3608 27.9525 82.3575 26.9382 82.964 26.0688C83.0833 25.8978 83.2012 25.7128 83.3166 25.5185C84.5496 23.4436 83.0467 20.9035 80.6358 21.0161C78.6866 21.107 76.7243 21.6105 76.1585 23.1665Z" fill="#CCCCCC" stroke-width="2px"></path><path class="fillCls11" d="M78.1598 27.8102L78.1598 28.7714C78.1598 28.7714 77.5041 28.0106 77.159 27.4704C76.6697 26.7042 76.1582 25.3687 76.1582 25.3687C77.3221 25.6014 78.1598 26.6233 78.1598 27.8102Z" fill="#555555" stroke-width="2px"></path><circle class="fillCls11" cx="80.5623" cy="23.367" r="1.20097" fill="#555555" stroke-width="2px"></circle></g><ellipse class="satellite5-right-spec fillCls12" cx="52.3074" cy="123.726" rx="2.05856" ry="1.23513" transform="rotate(15 52.3074 123.726)" fill="#CCCCCC" style="animation-duration: 4s;"></ellipse><ellipse class="satellite5-right-spec fillCls12" cx="45.3511" cy="17.8459" rx="2.05856" ry="1.23513" transform="rotate(-19.2956 45.3511 17.8459)" fill="#CCCCCC" style="animation-duration: 4s;"></ellipse><ellipse class="satellite5-bottom-spec fillCls12" cx="97.868" cy="131.7" rx="2.69086" ry="1.03864" transform="rotate(-15 97.868 131.7)" fill="#CCCCCC" style="animation-duration: 4s;"></ellipse><ellipse class="satellite5-bottom-spec fillCls12" cx="134.877" cy="28.7706" rx="2.69086" ry="1.03864" transform="rotate(16.763 134.877 28.7706)" fill="#CCCCCC" style="animation-duration: 4s;"></ellipse><g class="satellite5-left-rock" style="animation-duration: 4s;"><path class="fillCls12" d="M18.1808 102.597C17.774 103.438 18.1808 104.99 18.1808 104.99C18.1808 104.99 20.2115 106.019 21.607 106.404C23.0751 106.808 25.4682 106.947 25.4682 106.947C25.4682 106.947 26.9358 105.395 26.7734 104.228C26.6826 103.576 23.6088 101.415 21.9877 101.074C20.2002 100.698 18.549 101.836 18.1808 102.597Z" fill="#CCCCCC" stroke-width="2px"></path><path class="fillCls11" d="M20.2487 104.663C19.6008 104.486 18.6172 105.207 18.6172 105.207C18.6172 105.207 19.6632 105.707 20.3575 105.968C21.1188 106.295 21.6627 106.403 21.6627 106.403C21.6627 106.403 21.4451 104.99 20.2487 104.663Z" fill="#555555" stroke-width="2px"></path><ellipse class="fillCls11" cx="24.2116" cy="104.266" rx="1.4584" ry="0.830854" transform="rotate(30.2019 24.2116 104.266)" fill="#555555"></ellipse></g><g class="satellite5-move" style="animation-duration: 4s;"><path class="fillCls8" d="M89.7586 89.5216L98.1768 93.9783C98.7846 94.3002 99.5382 94.0815 99.8795 93.4843C100.229 92.8733 100.016 92.0948 99.4053 91.7456L91.1351 87.0198C90.3528 86.5728 89.357 86.9532 89.072 87.8081C88.8513 88.4703 89.1417 89.195 89.7586 89.5216Z" fill="#2C587D" stroke-width="2px"></path><path class="fillCls1" d="M101.133 77.1333L93.3555 104.511L138.467 131.267L145 104.511L101.133 77.1333Z" fill="#96C4EC" stroke-width="2px"></path><path class="strokeCls1" d="M142.511 112.911L98.9551 85.8442" stroke="#ffffff" stroke-width="2px" stroke-linecap="round"></path><path class="strokeCls1" d="M136.6 99.5332L130.066 125.978" stroke="#ffffff" stroke-width="2px" stroke-linecap="round"></path><path class="strokeCls1" d="M132.555 97.0444L125.711 123.489" stroke="#ffffff" stroke-width="2px" stroke-linecap="round"></path><path class="strokeCls1" d="M128.2 94.5557L121.355 121" stroke="#ffffff" stroke-width="2px" stroke-linecap="round"></path><path class="strokeCls1" d="M123.845 91.7554L116.689 118.2" stroke="#ffffff" stroke-width="2px" stroke-linecap="round"></path><path class="strokeCls1" d="M112.021 115.4L119.177 88.9556" stroke="#ffffff" stroke-width="2px" stroke-linecap="round"></path><path class="strokeCls1" d="M107.355 112.6L114.822 86.1558" stroke="#ffffff" stroke-width="2px" stroke-linecap="round"></path><path class="strokeCls1" d="M102.689 109.8L110.156 83.0444" stroke="#ffffff" stroke-width="2px" stroke-linecap="round"></path><path class="strokeCls1" d="M98.0215 107L105.488 80.2446" stroke="#ffffff" stroke-width="2px" stroke-linecap="round"></path><path class="strokeCls1" d="M134.732 128.778L140.955 102.333" stroke="#ffffff" stroke-width="2px" stroke-linecap="round"></path><path class="strokeCls1" d="M140.334 122.244L96.1562 95.4888" stroke="#ffffff" stroke-width="2px" stroke-linecap="round"></path><path class="fillCls4" d="M61.0645 88.8469C57.2738 75.7342 72.201 69.0443 73.1341 69.6668L82.1564 97.0445C81.2231 97.6668 64.8552 101.96 61.0645 88.8469Z" fill="#3CC099" stroke-width="2px"></path><path class="fillCls5" d="M71.2679 70.2888L96.4676 57.2222L107.668 87.0888L81.5345 97.3555C81.5345 97.3555 73.7567 100.156 68.4679 87.0888C63.179 74.0222 71.2679 70.2888 71.2679 70.2888Z" fill="#1A8464" stroke-width="2px"></path><path class="fillCls4" d="M86.5104 77.1334C81.8403 60.9556 98.0226 56.7148 98.9541 56.6C111.356 55.0727 118.165 83.4458 106.421 87.7133L106.412 87.7164C105.479 88.0557 91.1657 93.2598 86.5104 77.1334Z" fill="#3CC099" stroke-width="2px"></path><path class="fillCls8" d="M74.5539 73.7674L66.1357 69.3107C65.5279 68.9889 64.7743 69.2075 64.433 69.8047C64.0839 70.4158 64.2962 71.1942 64.9072 71.5434L73.1774 76.2692C73.9597 76.7163 74.9555 76.3358 75.2405 75.481C75.4612 74.8188 75.1708 74.094 74.5539 73.7674Z" fill="#2C587D" stroke-width="2px"></path><path class="fillCls1" d="M5 52.5556L17.1333 23L71.2667 57.8444L61.9333 86.7778L5 52.5556Z" fill="#96C4EC" stroke-width="2px"></path><path class="strokeCls1" d="M66.2884 55.0444L56.9551 83.3555" stroke="#ffffff" stroke-width="2px" stroke-linecap="round"></path><path class="strokeCls1" d="M60.9999 51.6221L51.3555 79.9332" stroke="#ffffff" stroke-width="2px" stroke-linecap="round"></path><path class="strokeCls1" d="M55.7114 48.2002L45.7559 76.8224" stroke="#ffffff" stroke-width="2px" stroke-linecap="round"></path><path class="strokeCls1" d="M50.4229 44.7778L40.1562 73.4001" stroke="#ffffff" stroke-width="2px" stroke-linecap="round"></path><path class="strokeCls1" d="M44.8214 41.0444L34.5547 69.9778" stroke="#ffffff" stroke-width="2px" stroke-linecap="round"></path><path class="strokeCls1" d="M33.9338 34.2002L23.0449 63.1335" stroke="#ffffff" stroke-width="2px" stroke-linecap="round"></path><path class="strokeCls1" d="M13.4004 32.6445L68.1559 66.8668" stroke="#ffffff" stroke-width="2px" stroke-linecap="round"></path><path class="strokeCls1" d="M39.5334 37.6221L28.6445 66.5554" stroke="#ffffff" stroke-width="2px" stroke-linecap="round"></path><path class="strokeCls1" d="M9.35547 42.9111L65.0444 76.8222" stroke="#ffffff" stroke-width="2px" stroke-linecap="round"></path><path class="strokeCls1" d="M22.4213 26.7334L10.9102 55.9778" stroke="#ffffff" stroke-width="2px" stroke-linecap="round"></path><path class="strokeCls1" d="M28.3334 30.4668L16.8223 59.4001" stroke="#ffffff" stroke-width="2px" stroke-linecap="round"></path><ellipse class="fillCls3" cx="112.327" cy="69.4721" rx="16.8959" ry="24.025" transform="rotate(-21.1843 112.327 69.4721)" fill="#5F92BF"></ellipse><ellipse class="fillCls2" cx="110.609" cy="69.9904" rx="13.2869" ry="20.9738" transform="rotate(-21.1843 110.609 69.9904)" fill="#8DBEE9"></ellipse><path class="fillCls9" d="M113.505 52.6946L120.531 62.3547C120.792 62.7137 120.719 63.2153 120.367 63.4852C120.005 63.7623 119.487 63.6905 119.214 63.3255L112.065 53.7562C111.758 53.3453 111.859 52.7609 112.285 52.4764C112.685 52.2102 113.223 52.3065 113.505 52.6946Z" fill="#555555" stroke-width="2px"></path><path class="fillCls9" d="M122.153 66.6892L124.879 78.9549C124.952 79.2835 124.815 79.623 124.535 79.8097C124.047 80.1355 123.384 79.8531 123.281 79.275L121.072 66.9056C121.029 66.6651 121.15 66.425 121.369 66.3157C121.689 66.1554 122.075 66.3391 122.153 66.6892Z" fill="#555555" stroke-width="2px"></path><path class="fillCls9" d="M121.22 66.5132L109.839 87.3778C109.646 87.7332 109.217 87.8885 108.841 87.74C108.386 87.5607 108.196 87.0198 108.439 86.5954L120.235 65.9631C120.384 65.7033 120.709 65.6047 120.977 65.7386C121.263 65.8814 121.373 66.2328 121.22 66.5132Z" fill="#555555" stroke-width="2px"></path><path class="fillCls9" d="M120.097 65.9244L97.234 61.6376C96.8288 61.5617 96.5623 61.1713 96.639 60.7663C96.7164 60.3574 97.1137 60.0911 97.5214 60.1749L120.307 64.8575C120.657 64.9294 120.843 65.3136 120.683 65.6332C120.575 65.8503 120.336 65.9692 120.097 65.9244Z" fill="#555555" stroke-width="2px"></path><ellipse class="fillCls10" cx="121.345" cy="65.6028" rx="4.80327" ry="5.33697" transform="rotate(-16.3699 121.345 65.6028)" fill="#FFB95B"></ellipse><path class="fillCls6" d="M82.1563 94.8667L80.9608 95.3015C79.7113 95.7558 78.3245 95.1554 77.8008 93.9334L81.223 92.689L82.1563 94.8667Z" fill="#0A4936" stroke-width="2px"></path><path class="fillCls6" d="M87.1329 93L85.9374 93.4348C84.6879 93.8891 83.3011 93.2887 82.7773 92.0667L86.1996 90.8223L87.1329 93Z" fill="#0A4936" stroke-width="2px"></path><path class="fillCls6" d="M92.1114 91.1333L88.6892 92.3778L87.7559 90.2L88.9514 89.7653C90.2009 89.3109 91.5877 89.9113 92.1114 91.1333Z" fill="#0A4936" stroke-width="2px"></path><circle class="fillCls7" cx="89.6225" cy="70.9111" r="1.86667" fill="#87F0D1" stroke-width="2px"></circle><circle class="fillCls7" cx="90.8667" cy="77.1333" r="1.86667" fill="#87F0D1" stroke-width="2px"></circle></g></svg>